<svg xmlns="http://www.w3.org/2000/svg" xmlns:xlink="http://www.w3.org/1999/xlink" version="1.1" id="Layer_1" x="0px" y="0px" viewBox="0 0 100 100" enable-background="new 0 0 100 100" xml:space="preserve" height="100px" width="100px">
<path d="M75.7,35.7c0.9-1.1,2-2.5,2-4.3c0-1.8-1.1-3.2-2-4.3c-0.4-0.5-0.9-1.1-1-1.5c-0.1-0.4,0.1-1.2,0.3-1.8  c0.3-1.4,0.7-3.1-0.1-4.7c-0.8-1.6-2.4-2.4-3.6-3c-0.6-0.3-1.3-0.6-1.6-0.9c-0.2-0.3-0.4-1.1-0.6-1.7c-0.3-1.4-0.7-3.1-2.1-4.2  c-1.4-1.1-3.1-1.1-4.5-1.1c-0.7,0-1.5,0-1.8-0.2c-0.3-0.1-0.8-0.8-1.2-1.3c-0.9-1.1-2-2.5-3.7-2.9c-0.3-0.1-0.6-0.1-1-0.1  c-1.3,0-2.5,0.6-3.6,1.1c-0.6,0.3-1.4,0.7-1.8,0.7c-0.4,0-1.1-0.4-1.8-0.7c-1-0.5-2.2-1.1-3.6-1.1c-0.3,0-0.7,0-1,0.1  c-1.8,0.4-2.9,1.8-3.7,2.9c-0.4,0.5-0.9,1.2-1.2,1.3c-0.3,0.2-1.2,0.2-1.8,0.2c-1.4,0-3.2,0-4.5,1.1c-1.4,1.1-1.8,2.8-2.1,4.2  c-0.1,0.6-0.3,1.5-0.6,1.7c-0.2,0.3-1,0.6-1.6,0.9c-1.3,0.6-2.9,1.4-3.6,3c-0.8,1.6-0.4,3.3-0.1,4.7c0.2,0.7,0.3,1.5,0.3,1.8  c-0.1,0.3-0.6,1-1,1.5c-0.9,1.1-2,2.5-2,4.3c0,1.8,1.1,3.2,2,4.3c0.4,0.5,0.9,1.1,1,1.5c0.1,0.4-0.1,1.2-0.3,1.8  c-0.3,1.4-0.7,3.1,0.1,4.7c0.8,1.6,2.4,2.4,3.6,3c0.6,0.3,1.3,0.6,1.6,0.9c0.2,0.3,0.4,1.1,0.6,1.7c0.3,1.4,0.7,3.1,2.1,4.2  c1.4,1.1,3.1,1.1,4.5,1.1c0.7,0,1.5,0,1.8,0.2c0.3,0.1,0.8,0.8,1.2,1.3c0.9,1.1,2,2.5,3.7,2.9c0.3,0.1,0.6,0.1,1,0.1  c1.3,0,2.5-0.6,3.6-1.1c0.6-0.3,1.4-0.7,1.8-0.7s1.1,0.4,1.8,0.7c1,0.5,2.2,1.1,3.6,1.1c0.3,0,0.7,0,1-0.1c1.8-0.4,2.9-1.8,3.7-2.9  c0.4-0.5,0.9-1.2,1.2-1.3c0.3-0.2,1.2-0.2,1.8-0.2c1.4,0,3.2,0,4.5-1.1c1.4-1.1,1.8-2.8,2.1-4.2c0.1-0.6,0.3-1.5,0.6-1.7  c0.2-0.3,1-0.6,1.6-0.9c1.3-0.6,2.9-1.4,3.6-3c0.8-1.6,0.4-3.3,0.1-4.7c-0.2-0.7-0.3-1.5-0.3-1.8C74.8,36.9,75.3,36.2,75.7,35.7z   M49.4,48.8C39.8,48.8,32,41,32,31.4S39.8,14,49.4,14c9.6,0,17.4,7.8,17.4,17.4S59,48.8,49.4,48.8z"/>
<circle cx="49.4" cy="31.4" r="12.4"/>
<path d="M68,56.4c-1.9,1.1-4,1.1-5.5,1.1c-0.1,0-0.3,0-0.5,0c-0.1,0.1-0.2,0.3-0.3,0.4c-1,1.2-2.4,3.1-4.9,3.8L51,80l5.1,15.9  L64.9,85l13.5,3.7L68,56.4z"/>
<g>
	<path d="M49.9,60.6c-0.1-0.1-0.3-0.2-0.5-0.2c-0.2,0.1-0.4,0.2-0.5,0.2c-1.2,0.6-2.8,1.4-4.8,1.4c-0.5,0-1.1-0.1-1.6-0.2   c-2.8-0.6-4.3-2.6-5.4-3.9c-0.1-0.1-0.2-0.2-0.3-0.4c-0.2,0-0.4,0-0.5,0c-1.4,0-3.5,0-5.5-1.1L20.5,88.7L34,85l8.8,10.9l10.9-34   C52.2,61.7,50.9,61.1,49.9,60.6z"/>
</g>
</svg>