<svg xmlns="http://www.w3.org/2000/svg" xmlns:xlink="http://www.w3.org/1999/xlink" version="1.1" id="Your_Icon" x="0px" y="0px" width="100px" height="100px" viewBox="0 0 100 100" enable-background="new 0 0 100 100" xml:space="preserve">
<g>
	<g>
		<g>
		</g>
	</g>
	<g>
	</g>
</g>
<g>
</g>
<g>
	<path d="M76.41,45.727l-2.23-13.443c-4.867,1.327-5.594-3.324-5.694-4.35l-54.74,9.088c1.252,4.672-3.022,5.508-4.241,5.649   l2.318,13.962l-0.059-0.637c4.985-1.41,5.683,3.395,5.772,4.362l54.699-9.08C71.086,46.79,75.096,45.897,76.41,45.727z    M19.469,57.376c-1.06-2.797-4.787-3.418-4.825-3.424l-0.254-0.04l-0.171-1.035l-1.496-9.003l0.228-0.121   c0.032-0.018,3.361-1.818,3.458-4.798l0.713,0.023c-0.096,2.946-2.797,4.787-3.613,5.275l0.09,0.539l1.412,8.507   c0.93,0.199,4.081,1.067,5.124,3.825L19.469,57.376z M42.125,45.978c-0.863-0.33-1.479-1.093-1.61-1.989   c-0.202-1.384,0.759-2.672,2.142-2.874c0.074-0.011,0.149-0.019,0.224-0.022c1.298-0.075,2.461,0.875,2.649,2.165   c0.109,0.742-0.126,1.494-0.645,2.064c-0.134,0.147-0.168,0.36-0.086,0.542c0.083,0.182,0.265,0.297,0.464,0.293   c1.713-0.029,3.214,0.571,4.21,1.579c-1.319,1.625-3.014,3.441-5.155,5.752c-2.186-1.18-4.013-2.157-5.558-3.062   c0.542-1.436,1.739-2.738,3.399-3.53c0.18-0.086,0.292-0.271,0.285-0.471C42.437,46.225,42.311,46.049,42.125,45.978z    M52.468,42.83c-0.507,1.391-1.297,2.693-2.374,4.108c-0.99-0.956-2.355-1.586-3.918-1.743c0.325-0.641,0.448-1.364,0.343-2.083   c-0.281-1.928-2.038-3.273-4.007-2.987c-1.928,0.282-3.268,2.079-2.987,4.008c0.136,0.93,0.643,1.756,1.385,2.308   c-1.418,0.877-2.451,2.113-3.008,3.469c-2.062-1.265-3.572-2.432-4.735-3.875c-2.999-3.715-2.171-7.424,0.535-9.271   c2.542-1.734,6.343-1.13,8.074,1.405c0.818-2.958,4.222-4.756,7.189-3.939C52.123,35.102,54.101,38.345,52.468,42.83z    M69.734,49.352l-0.712-0.023c0.098-2.945,2.8-4.787,3.614-5.276l-0.09-0.538l-1.412-8.506c-0.931-0.2-4.08-1.069-5.126-3.825   l0.669-0.253c1.058,2.796,4.786,3.418,4.823,3.424l0.252,0.041l0.174,1.035l1.496,9.003l-0.229,0.121   C73.161,44.571,69.835,46.373,69.734,49.352z"/>
	<path d="M75.078,24.629L6.167,36.07l4.619,27.813l68.91-11.44L75.078,24.629z M7.87,37.286L73.861,26.33l4.133,24.896   L12.003,62.181L7.87,37.286z"/>
	<path d="M79.314,41.425l2.022,12.19l-16.132,2.678c-1.732,1.951-4.223,3.926-7.778,6.784c-2.399-1.789-4.322-3.215-5.876-4.517   l-19.129,3.176c0.243,0.422,0.435,0.89,0.549,1.409L32.275,63.3c-0.118-0.539-0.337-1.016-0.614-1.438l-2.608,0.434   c0.922,1.334,0.905,3.125,0.875,3.673l55.438-1.006c-0.481-4.608,3.616-4.908,4.94-4.886L90.06,46.455   c-5.007,0.602-5.048-4.106-4.997-5.135L79.314,41.425z M87.109,48.112l0.243,0.076l0.021,1.05l0.166,9.124l-0.242,0.089   c-0.036,0.011-3.591,1.307-4.12,4.241l-0.702-0.126c0.524-2.9,3.466-4.326,4.344-4.693l-0.011-0.547l-0.157-8.62   c-0.89-0.333-3.879-1.653-4.511-4.531l0.695-0.153C83.474,46.94,87.072,48.1,87.109,48.112z"/>
	<polygon points="92.231,38.893 78.937,39.166 79.183,40.641 90.784,40.401 91.306,65.632 24.424,67.014 24.346,63.153    22.871,63.419 22.976,68.524 92.815,67.08  "/>
</g>
</svg>